# xmcd CD database file
#
# Track frame offsets:
#	150
#	15007
#	30977
#	41622
#	58421
#	75144
#	89997
#	107032
#	119819
#	132135
#	145675
#	162818
#	179640
#	192763
#	208875
#	228950
#
# Disc length: 3224 seconds
#
# Revision: 1
# Processed by: cddbd v1.5.1PL2 Copyright (c) Steve Scherf et al.
# Submitted via: CDex 1.51
#
DISCID=d40c9610
DTITLE=Kacey Jones - Never Wear Panties to A Party
DYEAR=2002
DGENRE=Comedy
TTITLE0=Be Particular
TTITLE1=You Can't Make Someone Love You
TTITLE2=Never Wear Panties To A Party
TTITLE3=I Don't Like Sleepin' Alone
TTITLE4=I Went Down Standin' Up
TTITLE5=Surrounded by the Blues
TTITLE6=222nd Wind
TTITLE7=I Thought He Was Mr. Right
TTITLE8=Gimme A Younger Man
TTITLE9=I Wanna Be A Sweet Potato Queen
TTITLE10=Just to Torture Myself (OJ Version)
TTITLE11=I'm Not Afraid To Tell You I'm Afraid
TTITLE12=We Need The Wood (G)
TTITLE13=Up Against Your Love
TTITLE14=The SPQ Parade Anthem
TTITLE15=We Need The Wood (PG)
EXTD=YEAR: 2002
EXTT0=
EXTT1=
EXTT2=
EXTT3=
EXTT4=
EXTT5=
EXTT6=
EXTT7=
EXTT8=
EXTT9=
EXTT10=
EXTT11=
EXTT12=
EXTT13=
EXTT14=
EXTT15=
PLAYORDER=
